<?xml version="1.0" standalone="no"?><svg xmlns="http://www.w3.org/2000/svg" viewBox="0 0 1440 320"><path fill="#035a41" fill-opacity="1" d="M0,288L34.3,266.7C68.6,245,137,203,206,208C274.3,213,343,267,411,272C480,277,549,235,617,234.7C685.7,235,754,277,823,293.3C891.4,309,960,299,1029,288C1097.1,277,1166,267,1234,240C1302.9,213,1371,171,1406,149.3L1440,128L1440,320L1405.7,320C1371.4,320,1303,320,1234,320C1165.7,320,1097,320,1029,320C960,320,891,320,823,320C754.3,320,686,320,617,320C548.6,320,480,320,411,320C342.9,320,274,320,206,320C137.1,320,69,320,34,320L0,320Z"></path></svg>